Coordinates
version=1
nRows=8
nColumns=27
inDegrees=yes

Units are S.I. units (second, meters, Newtons, ...)
If the header above contains a line with 'inDegrees', this indicates whether rotational values are in degrees (yes) or radians (no).

endheader
time	pelvis_rotation	pelvis_tilt	pelvis_list	pelvis_tx	pelvis_ty	pelvis_tz	hip_flexion_r	hip_adduction_r	hip_rotation_r	knee_angle_r	knee_rotation_r	knee_adduction_r	knee_angle_r_beta	ankle_angle_r	subtalar_angle_r	mtp_angle_r	hip_flexion_l	hip_adduction_l	hip_rotation_l	knee_angle_l	knee_rotation_l	knee_adduction_l	knee_angle_l_beta	ankle_angle_l	subtalar_angle_l	mtp_angle_l
      5.03500000	     10.15477606	    -46.17423207	      8.71715365	     -0.08443613	      0.62598662	     -1.11469986	    118.58921388	    -42.97249395	      6.60444488	     77.74825131	      0.00000000	      0.00000000	      1.35696297	      1.49493954	      0.00000000	      0.00000000	    109.82027542	    -31.13834213	     -3.09630367	     68.66548839	      0.00000000	      0.00000000	      1.19843885	     -7.64622901	      0.00000000	      0.00000000
      5.04000000	     10.14129588	    -46.17542151	      8.75926835	     -0.08437606	      0.62739385	     -1.11499687	    118.35474412	    -42.97109247	      6.44680182	     77.46252225	      0.00000000	      0.00000000	      1.35197606	      1.38894762	      0.00000000	      0.00000000	    109.54696089	    -31.12840434	     -3.30356280	     68.42185952	      0.00000000	      0.00000000	      1.19418673	     -7.70438305	      0.00000000	      0.00000000
      5.04500000	     10.06602924	    -46.16683775	      8.78952294	     -0.08429869	      0.62876688	     -1.11530538	    118.11757198	    -42.90969039	      6.32116828	     77.17683041	      0.00000000	      0.00000000	      1.34698980	      1.28120443	      0.00000000	      0.00000000	    109.24992234	    -31.16981226	     -3.53353333	     68.19406470	      0.00000000	      0.00000000	      1.19021096	     -7.73005000	      0.00000000	      0.00000000
      5.05000000	     10.06653261	    -46.07500934	      8.84374762	     -0.08417193	      0.63011813	     -1.11566041	    117.81467921	    -42.95189028	      6.17497753	     76.90434064	      0.00000000	      0.00000000	      1.34223395	      1.18404269	      0.00000000	      0.00000000	    108.88134731	    -31.13250316	     -3.75244339	     67.96144042	      0.00000000	      0.00000000	      1.18615090	     -7.77953668	      0.00000000	      0.00000000
      5.05500000	     10.01022225	    -46.04992645	      8.87589379	     -0.08406201	      0.63144497	     -1.11600700	    117.56410370	    -42.91698426	      6.04208235	     76.62661642	      0.00000000	      0.00000000	      1.33738675	      1.09266114	      0.00000000	      0.00000000	    108.58002859	    -31.14728383	     -3.96365898	     67.74207841	      0.00000000	      0.00000000	      1.18232231	     -7.80791406	      0.00000000	      0.00000000
      5.06000000	      9.96778699	    -45.99031385	      8.91531089	     -0.08392094	      0.63273434	     -1.11639516	    117.29598676	    -42.90823214	      5.91970981	     76.35399763	      0.00000000	      0.00000000	      1.33262866	      0.97277316	      0.00000000	      0.00000000	    108.25067353	    -31.14080996	     -4.17132003	     67.53034285	      0.00000000	      0.00000000	      1.17862683	     -7.84090543	      0.00000000	      0.00000000
      5.06500000	      9.90490349	    -45.93122082	      8.94512423	     -0.08375934	      0.63400908	     -1.11678276	    117.02309300	    -42.88676018	      5.79131521	     76.08668266	      0.00000000	      0.00000000	      1.32796313	      0.88908880	      0.00000000	      0.00000000	    107.92116667	    -31.14998316	     -4.37971955	     67.33283001	      0.00000000	      0.00000000	      1.17517958	     -7.84186709	      0.00000000	      0.00000000
      5.07000000	      9.86639850	    -45.89181253	      8.97381006	     -0.08359576	      0.63524789	     -1.11720105	    116.77051794	    -42.88927957	      5.65477533	     75.82275725	      0.00000000	      0.00000000	      1.32335676	      0.78859565	      0.00000000	      0.00000000	    107.63489852	    -31.12925514	     -4.55285769	     67.14078527	      0.00000000	      0.00000000	      1.17182777	     -7.85252637	      0.00000000	      0.00000000
